<?xml version="1.0" encoding="UTF-8" standalone="no"?>
<!DOCTYPE svg PUBLIC "-//W3C//DTD SVG 1.1//EN"
 "http://www.w3.org/Graphics/SVG/1.1/DTD/svg11.dtd">
<!-- Generated by graphviz version 10.0.1 (20240210.2158)
 -->
<!-- Title: ArvoreBin Pages: 1 -->
<svg width="134pt" height="307pt"
 viewBox="0.00 0.00 134.00 307.25" xmlns="http://www.w3.org/2000/svg" xmlns:xlink="http://www.w3.org/1999/xlink">
<g id="graph0" class="graph" transform="scale(1 1) rotate(0) translate(4 303.25)">
<title>ArvoreBin</title>
<polygon fill="white" stroke="none" points="-4,4 -4,-303.25 130,-303.25 130,4 -4,4"/>
<!-- 50 -->
<g id="node1" class="node">
<title>50</title>
<ellipse fill="none" stroke="black" cx="63" cy="-281.25" rx="27" ry="18"/>
<text text-anchor="middle" x="63" y="-275.82" font-family="Times New Roman,serif" font-size="14.00">50</text>
</g>
<!-- 10 -->
<g id="node2" class="node">
<title>10</title>
<ellipse fill="none" stroke="black" cx="27" cy="-193.5" rx="27" ry="18"/>
<text text-anchor="middle" x="27" y="-188.07" font-family="Times New Roman,serif" font-size="14.00">10</text>
</g>
<!-- 50&#45;&gt;10 -->
<g id="edge1" class="edge">
<title>50&#45;&gt;10</title>
<path fill="none" stroke="black" d="M56.06,-263.72C51.06,-251.81 44.21,-235.48 38.41,-221.68"/>
<polygon fill="black" stroke="black" points="41.73,-220.54 34.63,-212.67 35.27,-223.25 41.73,-220.54"/>
<text text-anchor="middle" x="57.62" y="-231.95" font-family="Times New Roman,serif" font-size="14.00">left</text>
</g>
<!-- 70 -->
<g id="node5" class="node">
<title>70</title>
<ellipse fill="none" stroke="black" cx="99" cy="-193.5" rx="27" ry="18"/>
<text text-anchor="middle" x="99" y="-188.07" font-family="Times New Roman,serif" font-size="14.00">70</text>
</g>
<!-- 50&#45;&gt;70 -->
<g id="edge4" class="edge">
<title>50&#45;&gt;70</title>
<path fill="none" stroke="black" d="M69.94,-263.72C74.94,-251.81 81.79,-235.48 87.59,-221.68"/>
<polygon fill="black" stroke="black" points="90.73,-223.25 91.37,-212.67 84.27,-220.54 90.73,-223.25"/>
<text text-anchor="middle" x="97.38" y="-231.95" font-family="Times New Roman,serif" font-size="14.00">right</text>
</g>
<!-- 40 -->
<g id="node3" class="node">
<title>40</title>
<ellipse fill="none" stroke="black" cx="27" cy="-105.75" rx="27" ry="18"/>
<text text-anchor="middle" x="27" y="-100.33" font-family="Times New Roman,serif" font-size="14.00">40</text>
</g>
<!-- 10&#45;&gt;40 -->
<g id="edge2" class="edge">
<title>10&#45;&gt;40</title>
<path fill="none" stroke="black" d="M27,-175.15C27,-163.76 27,-148.59 27,-135.43"/>
<polygon fill="black" stroke="black" points="30.5,-135.59 27,-125.59 23.5,-135.59 30.5,-135.59"/>
<text text-anchor="middle" x="39.38" y="-144.2" font-family="Times New Roman,serif" font-size="14.00">right</text>
</g>
<!-- 20 -->
<g id="node4" class="node">
<title>20</title>
<ellipse fill="none" stroke="black" cx="27" cy="-18" rx="27" ry="18"/>
<text text-anchor="middle" x="27" y="-12.57" font-family="Times New Roman,serif" font-size="14.00">20</text>
</g>
<!-- 40&#45;&gt;20 -->
<g id="edge3" class="edge">
<title>40&#45;&gt;20</title>
<path fill="none" stroke="black" d="M27,-87.4C27,-76.01 27,-60.84 27,-47.68"/>
<polygon fill="black" stroke="black" points="30.5,-47.84 27,-37.84 23.5,-47.84 30.5,-47.84"/>
<text text-anchor="middle" x="35.62" y="-56.45" font-family="Times New Roman,serif" font-size="14.00">left</text>
</g>
<!-- 60 -->
<g id="node6" class="node">
<title>60</title>
<ellipse fill="none" stroke="black" cx="99" cy="-105.75" rx="27" ry="18"/>
<text text-anchor="middle" x="99" y="-100.33" font-family="Times New Roman,serif" font-size="14.00">60</text>
</g>
<!-- 70&#45;&gt;60 -->
<g id="edge5" class="edge">
<title>70&#45;&gt;60</title>
<path fill="none" stroke="black" d="M99,-175.15C99,-163.76 99,-148.59 99,-135.43"/>
<polygon fill="black" stroke="black" points="102.5,-135.59 99,-125.59 95.5,-135.59 102.5,-135.59"/>
<text text-anchor="middle" x="107.62" y="-144.2" font-family="Times New Roman,serif" font-size="14.00">left</text>
</g>
</g>
</svg>
