<?xml version="1.0" encoding="UTF-8" standalone="no"?>
<!DOCTYPE svg PUBLIC "-//W3C//DTD SVG 1.1//EN"
 "http://www.w3.org/Graphics/SVG/1.1/DTD/svg11.dtd">
<!-- Generated by graphviz version 10.0.1 (20240210.2158)
 -->
<!-- Title: ArvoreBin Pages: 1 -->
<svg width="206pt" height="220pt"
 viewBox="0.00 0.00 206.00 219.50" xmlns="http://www.w3.org/2000/svg" xmlns:xlink="http://www.w3.org/1999/xlink">
<g id="graph0" class="graph" transform="scale(1 1) rotate(0) translate(4 215.5)">
<title>ArvoreBin</title>
<polygon fill="white" stroke="none" points="-4,4 -4,-215.5 202,-215.5 202,4 -4,4"/>
<!-- 50 -->
<g id="node1" class="node">
<title>50</title>
<ellipse fill="none" stroke="black" cx="63" cy="-193.5" rx="27" ry="18"/>
<text text-anchor="middle" x="63" y="-188.07" font-family="Times New Roman,serif" font-size="14.00">50</text>
</g>
<!-- 40 -->
<g id="node2" class="node">
<title>40</title>
<ellipse fill="none" stroke="black" cx="27" cy="-105.75" rx="27" ry="18"/>
<text text-anchor="middle" x="27" y="-100.33" font-family="Times New Roman,serif" font-size="14.00">40</text>
</g>
<!-- 50&#45;&gt;40 -->
<g id="edge1" class="edge">
<title>50&#45;&gt;40</title>
<path fill="none" stroke="black" d="M56.06,-175.97C51.06,-164.06 44.21,-147.73 38.41,-133.93"/>
<polygon fill="black" stroke="black" points="41.73,-132.79 34.63,-124.92 35.27,-135.5 41.73,-132.79"/>
<text text-anchor="middle" x="57.62" y="-144.2" font-family="Times New Roman,serif" font-size="14.00">left</text>
</g>
<!-- 70 -->
<g id="node4" class="node">
<title>70</title>
<ellipse fill="none" stroke="black" cx="99" cy="-105.75" rx="27" ry="18"/>
<text text-anchor="middle" x="99" y="-100.33" font-family="Times New Roman,serif" font-size="14.00">70</text>
</g>
<!-- 50&#45;&gt;70 -->
<g id="edge3" class="edge">
<title>50&#45;&gt;70</title>
<path fill="none" stroke="black" d="M69.94,-175.97C74.94,-164.06 81.79,-147.73 87.59,-133.93"/>
<polygon fill="black" stroke="black" points="90.73,-135.5 91.37,-124.92 84.27,-132.79 90.73,-135.5"/>
<text text-anchor="middle" x="97.38" y="-144.2" font-family="Times New Roman,serif" font-size="14.00">right</text>
</g>
<!-- 20 -->
<g id="node3" class="node">
<title>20</title>
<ellipse fill="none" stroke="black" cx="27" cy="-18" rx="27" ry="18"/>
<text text-anchor="middle" x="27" y="-12.57" font-family="Times New Roman,serif" font-size="14.00">20</text>
</g>
<!-- 40&#45;&gt;20 -->
<g id="edge2" class="edge">
<title>40&#45;&gt;20</title>
<path fill="none" stroke="black" d="M27,-87.4C27,-76.01 27,-60.84 27,-47.68"/>
<polygon fill="black" stroke="black" points="30.5,-47.84 27,-37.84 23.5,-47.84 30.5,-47.84"/>
<text text-anchor="middle" x="35.62" y="-56.45" font-family="Times New Roman,serif" font-size="14.00">left</text>
</g>
<!-- 60 -->
<g id="node5" class="node">
<title>60</title>
<ellipse fill="none" stroke="black" cx="99" cy="-18" rx="27" ry="18"/>
<text text-anchor="middle" x="99" y="-12.57" font-family="Times New Roman,serif" font-size="14.00">60</text>
</g>
<!-- 70&#45;&gt;60 -->
<g id="edge4" class="edge">
<title>70&#45;&gt;60</title>
<path fill="none" stroke="black" d="M99,-87.4C99,-76.01 99,-60.84 99,-47.68"/>
<polygon fill="black" stroke="black" points="102.5,-47.84 99,-37.84 95.5,-47.84 102.5,-47.84"/>
<text text-anchor="middle" x="107.62" y="-56.45" font-family="Times New Roman,serif" font-size="14.00">left</text>
</g>
<!-- 80 -->
<g id="node6" class="node">
<title>80</title>
<ellipse fill="none" stroke="black" cx="171" cy="-18" rx="27" ry="18"/>
<text text-anchor="middle" x="171" y="-12.57" font-family="Times New Roman,serif" font-size="14.00">80</text>
</g>
<!-- 70&#45;&gt;80 -->
<g id="edge5" class="edge">
<title>70&#45;&gt;80</title>
<path fill="none" stroke="black" d="M111.87,-89.42C122.73,-76.49 138.44,-57.78 150.94,-42.89"/>
<polygon fill="black" stroke="black" points="153.52,-45.27 157.27,-35.36 148.16,-40.76 153.52,-45.27"/>
<text text-anchor="middle" x="153.38" y="-56.45" font-family="Times New Roman,serif" font-size="14.00">right</text>
</g>
</g>
</svg>
