<?xml version="1.0" encoding="UTF-8" standalone="no"?>
<!DOCTYPE svg PUBLIC "-//W3C//DTD SVG 1.1//EN"
 "http://www.w3.org/Graphics/SVG/1.1/DTD/svg11.dtd">
<!-- Generated by graphviz version 10.0.1 (20240210.2158)
 -->
<!-- Title: ArvoreBin Pages: 1 -->
<svg width="206pt" height="395pt"
 viewBox="0.00 0.00 206.00 395.00" xmlns="http://www.w3.org/2000/svg" xmlns:xlink="http://www.w3.org/1999/xlink">
<g id="graph0" class="graph" transform="scale(1 1) rotate(0) translate(4 391)">
<title>ArvoreBin</title>
<polygon fill="white" stroke="none" points="-4,4 -4,-391 202,-391 202,4 -4,4"/>
<!-- 50 -->
<g id="node1" class="node">
<title>50</title>
<ellipse fill="none" stroke="black" cx="135" cy="-369" rx="27" ry="18"/>
<text text-anchor="middle" x="135" y="-363.57" font-family="Times New Roman,serif" font-size="14.00">50</text>
</g>
<!-- 10 -->
<g id="node2" class="node">
<title>10</title>
<ellipse fill="none" stroke="black" cx="99" cy="-281.25" rx="27" ry="18"/>
<text text-anchor="middle" x="99" y="-275.82" font-family="Times New Roman,serif" font-size="14.00">10</text>
</g>
<!-- 50&#45;&gt;10 -->
<g id="edge1" class="edge">
<title>50&#45;&gt;10</title>
<path fill="none" stroke="black" d="M128.06,-351.47C123.06,-339.56 116.21,-323.23 110.41,-309.43"/>
<polygon fill="black" stroke="black" points="113.73,-308.29 106.63,-300.42 107.27,-311 113.73,-308.29"/>
<text text-anchor="middle" x="128.62" y="-319.7" font-family="Times New Roman,serif" font-size="14.00">left</text>
</g>
<!-- 60 -->
<g id="node6" class="node">
<title>60</title>
<ellipse fill="none" stroke="black" cx="171" cy="-281.25" rx="27" ry="18"/>
<text text-anchor="middle" x="171" y="-275.82" font-family="Times New Roman,serif" font-size="14.00">60</text>
</g>
<!-- 50&#45;&gt;60 -->
<g id="edge5" class="edge">
<title>50&#45;&gt;60</title>
<path fill="none" stroke="black" d="M141.94,-351.47C146.94,-339.56 153.79,-323.23 159.59,-309.43"/>
<polygon fill="black" stroke="black" points="162.73,-311 163.37,-300.42 156.27,-308.29 162.73,-311"/>
<text text-anchor="middle" x="168.38" y="-319.7" font-family="Times New Roman,serif" font-size="14.00">right</text>
</g>
<!-- 30 -->
<g id="node3" class="node">
<title>30</title>
<ellipse fill="none" stroke="black" cx="99" cy="-193.5" rx="27" ry="18"/>
<text text-anchor="middle" x="99" y="-188.07" font-family="Times New Roman,serif" font-size="14.00">30</text>
</g>
<!-- 10&#45;&gt;30 -->
<g id="edge2" class="edge">
<title>10&#45;&gt;30</title>
<path fill="none" stroke="black" d="M99,-262.9C99,-251.51 99,-236.34 99,-223.18"/>
<polygon fill="black" stroke="black" points="102.5,-223.34 99,-213.34 95.5,-223.34 102.5,-223.34"/>
<text text-anchor="middle" x="111.38" y="-231.95" font-family="Times New Roman,serif" font-size="14.00">right</text>
</g>
<!-- 20 -->
<g id="node4" class="node">
<title>20</title>
<ellipse fill="none" stroke="black" cx="27" cy="-105.75" rx="27" ry="18"/>
<text text-anchor="middle" x="27" y="-100.33" font-family="Times New Roman,serif" font-size="14.00">20</text>
</g>
<!-- 30&#45;&gt;20 -->
<g id="edge3" class="edge">
<title>30&#45;&gt;20</title>
<path fill="none" stroke="black" d="M86.13,-177.17C75.27,-164.24 59.56,-145.53 47.06,-130.64"/>
<polygon fill="black" stroke="black" points="49.84,-128.51 40.73,-123.11 44.48,-133.02 49.84,-128.51"/>
<text text-anchor="middle" x="78.62" y="-144.2" font-family="Times New Roman,serif" font-size="14.00">left</text>
</g>
<!-- 40 -->
<g id="node5" class="node">
<title>40</title>
<ellipse fill="none" stroke="black" cx="99" cy="-105.75" rx="27" ry="18"/>
<text text-anchor="middle" x="99" y="-100.33" font-family="Times New Roman,serif" font-size="14.00">40</text>
</g>
<!-- 30&#45;&gt;40 -->
<g id="edge4" class="edge">
<title>30&#45;&gt;40</title>
<path fill="none" stroke="black" d="M99,-175.15C99,-163.76 99,-148.59 99,-135.43"/>
<polygon fill="black" stroke="black" points="102.5,-135.59 99,-125.59 95.5,-135.59 102.5,-135.59"/>
<text text-anchor="middle" x="111.38" y="-144.2" font-family="Times New Roman,serif" font-size="14.00">right</text>
</g>
<!-- 70 -->
<g id="node7" class="node">
<title>70</title>
<ellipse fill="none" stroke="black" cx="171" cy="-193.5" rx="27" ry="18"/>
<text text-anchor="middle" x="171" y="-188.07" font-family="Times New Roman,serif" font-size="14.00">70</text>
</g>
<!-- 60&#45;&gt;70 -->
<g id="edge6" class="edge">
<title>60&#45;&gt;70</title>
<path fill="none" stroke="black" d="M171,-262.9C171,-251.51 171,-236.34 171,-223.18"/>
<polygon fill="black" stroke="black" points="174.5,-223.34 171,-213.34 167.5,-223.34 174.5,-223.34"/>
<text text-anchor="middle" x="183.38" y="-231.95" font-family="Times New Roman,serif" font-size="14.00">right</text>
</g>
<!-- 100 -->
<g id="node8" class="node">
<title>100</title>
<ellipse fill="none" stroke="black" cx="171" cy="-105.75" rx="27" ry="18"/>
<text text-anchor="middle" x="171" y="-100.33" font-family="Times New Roman,serif" font-size="14.00">100</text>
</g>
<!-- 70&#45;&gt;100 -->
<g id="edge7" class="edge">
<title>70&#45;&gt;100</title>
<path fill="none" stroke="black" d="M171,-175.15C171,-163.76 171,-148.59 171,-135.43"/>
<polygon fill="black" stroke="black" points="174.5,-135.59 171,-125.59 167.5,-135.59 174.5,-135.59"/>
<text text-anchor="middle" x="183.38" y="-144.2" font-family="Times New Roman,serif" font-size="14.00">right</text>
</g>
<!-- 90 -->
<g id="node9" class="node">
<title>90</title>
<ellipse fill="none" stroke="black" cx="171" cy="-18" rx="27" ry="18"/>
<text text-anchor="middle" x="171" y="-12.57" font-family="Times New Roman,serif" font-size="14.00">90</text>
</g>
<!-- 100&#45;&gt;90 -->
<g id="edge8" class="edge">
<title>100&#45;&gt;90</title>
<path fill="none" stroke="black" d="M171,-87.4C171,-76.01 171,-60.84 171,-47.68"/>
<polygon fill="black" stroke="black" points="174.5,-47.84 171,-37.84 167.5,-47.84 174.5,-47.84"/>
<text text-anchor="middle" x="179.62" y="-56.45" font-family="Times New Roman,serif" font-size="14.00">left</text>
</g>
</g>
</svg>
