<?xml version="1.0" encoding="UTF-8" standalone="no"?>
<!DOCTYPE svg PUBLIC "-//W3C//DTD SVG 1.1//EN"
 "http://www.w3.org/Graphics/SVG/1.1/DTD/svg11.dtd">
<!-- Generated by graphviz version 10.0.1 (20240210.2158)
 -->
<!-- Title: ArvoreBin Pages: 1 -->
<svg width="206pt" height="483pt"
 viewBox="0.00 0.00 206.00 482.75" xmlns="http://www.w3.org/2000/svg" xmlns:xlink="http://www.w3.org/1999/xlink">
<g id="graph0" class="graph" transform="scale(1 1) rotate(0) translate(4 478.75)">
<title>ArvoreBin</title>
<polygon fill="white" stroke="none" points="-4,4 -4,-478.75 202,-478.75 202,4 -4,4"/>
<!-- 50 -->
<g id="node1" class="node">
<title>50</title>
<ellipse fill="none" stroke="black" cx="63" cy="-456.75" rx="27" ry="18"/>
<text text-anchor="middle" x="63" y="-451.32" font-family="Times New Roman,serif" font-size="14.00">50</text>
</g>
<!-- 40 -->
<g id="node2" class="node">
<title>40</title>
<ellipse fill="none" stroke="black" cx="27" cy="-369" rx="27" ry="18"/>
<text text-anchor="middle" x="27" y="-363.57" font-family="Times New Roman,serif" font-size="14.00">40</text>
</g>
<!-- 50&#45;&gt;40 -->
<g id="edge1" class="edge">
<title>50&#45;&gt;40</title>
<path fill="none" stroke="black" d="M56.06,-439.22C51.06,-427.31 44.21,-410.98 38.41,-397.18"/>
<polygon fill="black" stroke="black" points="41.73,-396.04 34.63,-388.17 35.27,-398.75 41.73,-396.04"/>
<text text-anchor="middle" x="56.62" y="-407.45" font-family="Times New Roman,serif" font-size="14.00">left</text>
</g>
<!-- 70 -->
<g id="node4" class="node">
<title>70</title>
<ellipse fill="none" stroke="black" cx="99" cy="-369" rx="27" ry="18"/>
<text text-anchor="middle" x="99" y="-363.57" font-family="Times New Roman,serif" font-size="14.00">70</text>
</g>
<!-- 50&#45;&gt;70 -->
<g id="edge3" class="edge">
<title>50&#45;&gt;70</title>
<path fill="none" stroke="black" d="M69.94,-439.22C74.94,-427.31 81.79,-410.98 87.59,-397.18"/>
<polygon fill="black" stroke="black" points="90.73,-398.75 91.37,-388.17 84.27,-396.04 90.73,-398.75"/>
<text text-anchor="middle" x="96.38" y="-407.45" font-family="Times New Roman,serif" font-size="14.00">right</text>
</g>
<!-- 20 -->
<g id="node3" class="node">
<title>20</title>
<ellipse fill="none" stroke="black" cx="27" cy="-281.25" rx="27" ry="18"/>
<text text-anchor="middle" x="27" y="-275.82" font-family="Times New Roman,serif" font-size="14.00">20</text>
</g>
<!-- 40&#45;&gt;20 -->
<g id="edge2" class="edge">
<title>40&#45;&gt;20</title>
<path fill="none" stroke="black" d="M27,-350.65C27,-339.26 27,-324.09 27,-310.93"/>
<polygon fill="black" stroke="black" points="30.5,-311.09 27,-301.09 23.5,-311.09 30.5,-311.09"/>
<text text-anchor="middle" x="35.62" y="-319.7" font-family="Times New Roman,serif" font-size="14.00">left</text>
</g>
<!-- 60 -->
<g id="node5" class="node">
<title>60</title>
<ellipse fill="none" stroke="black" cx="99" cy="-281.25" rx="27" ry="18"/>
<text text-anchor="middle" x="99" y="-275.82" font-family="Times New Roman,serif" font-size="14.00">60</text>
</g>
<!-- 70&#45;&gt;60 -->
<g id="edge4" class="edge">
<title>70&#45;&gt;60</title>
<path fill="none" stroke="black" d="M99,-350.65C99,-339.26 99,-324.09 99,-310.93"/>
<polygon fill="black" stroke="black" points="102.5,-311.09 99,-301.09 95.5,-311.09 102.5,-311.09"/>
<text text-anchor="middle" x="107.62" y="-319.7" font-family="Times New Roman,serif" font-size="14.00">left</text>
</g>
<!-- 80 -->
<g id="node6" class="node">
<title>80</title>
<ellipse fill="none" stroke="black" cx="171" cy="-281.25" rx="27" ry="18"/>
<text text-anchor="middle" x="171" y="-275.82" font-family="Times New Roman,serif" font-size="14.00">80</text>
</g>
<!-- 70&#45;&gt;80 -->
<g id="edge5" class="edge">
<title>70&#45;&gt;80</title>
<path fill="none" stroke="black" d="M111.87,-352.67C122.73,-339.74 138.44,-321.03 150.94,-306.14"/>
<polygon fill="black" stroke="black" points="153.52,-308.52 157.27,-298.61 148.16,-304.01 153.52,-308.52"/>
<text text-anchor="middle" x="153.38" y="-319.7" font-family="Times New Roman,serif" font-size="14.00">right</text>
</g>
<!-- 90 -->
<g id="node7" class="node">
<title>90</title>
<ellipse fill="none" stroke="black" cx="171" cy="-193.5" rx="27" ry="18"/>
<text text-anchor="middle" x="171" y="-188.07" font-family="Times New Roman,serif" font-size="14.00">90</text>
</g>
<!-- 80&#45;&gt;90 -->
<g id="edge6" class="edge">
<title>80&#45;&gt;90</title>
<path fill="none" stroke="black" d="M171,-262.9C171,-251.51 171,-236.34 171,-223.18"/>
<polygon fill="black" stroke="black" points="174.5,-223.34 171,-213.34 167.5,-223.34 174.5,-223.34"/>
<text text-anchor="middle" x="183.38" y="-231.95" font-family="Times New Roman,serif" font-size="14.00">right</text>
</g>
<!-- 100 -->
<g id="node8" class="node">
<title>100</title>
<ellipse fill="none" stroke="black" cx="171" cy="-105.75" rx="27" ry="18"/>
<text text-anchor="middle" x="171" y="-100.33" font-family="Times New Roman,serif" font-size="14.00">100</text>
</g>
<!-- 90&#45;&gt;100 -->
<g id="edge7" class="edge">
<title>90&#45;&gt;100</title>
<path fill="none" stroke="black" d="M171,-175.15C171,-163.76 171,-148.59 171,-135.43"/>
<polygon fill="black" stroke="black" points="174.5,-135.59 171,-125.59 167.5,-135.59 174.5,-135.59"/>
<text text-anchor="middle" x="183.38" y="-144.2" font-family="Times New Roman,serif" font-size="14.00">right</text>
</g>
<!-- 110 -->
<g id="node9" class="node">
<title>110</title>
<ellipse fill="none" stroke="black" cx="171" cy="-18" rx="27" ry="18"/>
<text text-anchor="middle" x="171" y="-12.57" font-family="Times New Roman,serif" font-size="14.00">110</text>
</g>
<!-- 100&#45;&gt;110 -->
<g id="edge8" class="edge">
<title>100&#45;&gt;110</title>
<path fill="none" stroke="black" d="M171,-87.4C171,-76.01 171,-60.84 171,-47.68"/>
<polygon fill="black" stroke="black" points="174.5,-47.84 171,-37.84 167.5,-47.84 174.5,-47.84"/>
<text text-anchor="middle" x="183.38" y="-56.45" font-family="Times New Roman,serif" font-size="14.00">right</text>
</g>
</g>
</svg>
